<svg width="15" height="15" viewBox="0 0 15 15" fill="none" xmlns="http://www.w3.org/2000/svg">
<path d="M11.25 8.75001C11.25 8.91577 11.171 9.07474 11.0303 9.19195C10.8897 9.30916 10.6989 9.37501 10.5 9.37501H4.49999C4.30108 9.37501 4.11032 9.30916 3.96967 9.19195C3.82901 9.07474 3.75 8.91577 3.75 8.75001C3.75 8.58425 3.82901 8.42527 3.96967 8.30806C4.11032 8.19085 4.30108 8.12501 4.49999 8.12501H10.5C10.6989 8.12501 10.8897 8.19085 11.0303 8.30806C11.171 8.42527 11.25 8.58425 11.25 8.75001ZM8.24999 10.625H4.49999C4.30108 10.625 4.11032 10.6909 3.96967 10.8081C3.82901 10.9253 3.75 11.0842 3.75 11.25C3.75 11.4158 3.82901 11.5747 3.96967 11.6919C4.11032 11.8092 4.30108 11.875 4.49999 11.875H8.24999C8.4489 11.875 8.63967 11.8092 8.78032 11.6919C8.92097 11.5747 8.99999 11.4158 8.99999 11.25C8.99999 11.0842 8.92097 10.9253 8.78032 10.8081C8.63967 10.6909 8.4489 10.625 8.24999 10.625ZM15 6.55313V11.875C14.9988 12.7035 14.6033 13.4978 13.9003 14.0836C13.1973 14.6694 12.2442 14.999 11.25 15H3.75C2.7558 14.999 1.80267 14.6694 1.09966 14.0836C0.396661 13.4978 0.00119089 12.7035 0 11.875V3.12501C0.00119089 2.29652 0.396661 1.50224 1.09966 0.916401C1.80267 0.330565 2.7558 0.00100682 3.75 1.44054e-05H7.13624C7.82595 -0.00146492 8.50918 0.111007 9.14641 0.330926C9.78364 0.550846 10.3622 0.87385 10.8487 1.28126L13.4617 3.46001C13.9509 3.86516 14.3388 4.34717 14.6028 4.87812C14.8668 5.40907 15.0018 5.9784 15 6.55313V6.55313ZM9.78824 2.16501C9.5522 1.97449 9.28719 1.81059 8.99999 1.67751V4.37501C8.99999 4.54077 9.07901 4.69974 9.21966 4.81695C9.36031 4.93416 9.55108 5.00001 9.74999 5.00001H12.987C12.8272 4.76075 12.6303 4.5401 12.4012 4.34376L9.78824 2.16501ZM13.5 6.55313C13.5 6.45001 13.476 6.35126 13.4647 6.25001H9.74999C9.15325 6.25001 8.58096 6.05246 8.159 5.70083C7.73704 5.3492 7.49999 4.87229 7.49999 4.37501V1.27939C7.37849 1.27001 7.25924 1.25001 7.13624 1.25001H3.75C3.15326 1.25001 2.58096 1.44756 2.15901 1.79919C1.73705 2.15082 1.5 2.62773 1.5 3.12501V11.875C1.5 12.3723 1.73705 12.8492 2.15901 13.2008C2.58096 13.5525 3.15326 13.75 3.75 13.75H11.25C11.8467 13.75 12.419 13.5525 12.841 13.2008C13.2629 12.8492 13.5 12.3723 13.5 11.875V6.55313Z" fill="white"/>
</svg>
